<svg width="20" height="24" viewBox="0 0 20 24" fill="none" xmlns="http://www.w3.org/2000/svg">
    <path
        d="M15.9998 23.3332C17.1038 23.3332 17.9998 22.3812 17.9998 21.2082V4.9165H18.9998C19.1838 4.9165 19.3332 4.75784 19.3332 4.56234V3.854C19.3332 3.6585 19.1838 3.49984 18.9998 3.49984H14.6665L13.2665 1.51651C12.9353 1.0473 12.2185 0.666504 11.6665 0.666504H8.33317C7.78117 0.666504 7.06437 1.0473 6.73316 1.51651L5.33317 3.49984H0.999838C0.815838 3.49984 0.666504 3.6585 0.666504 3.854V4.56234C0.666504 4.75784 0.815838 4.9165 0.999838 4.9165H1.99984V21.2082C1.99984 22.3812 2.89583 23.3332 3.99984 23.3332H15.9998ZM12.9998 3.49984H6.99984L7.79985 2.36652C7.91052 2.21071 8.14946 2.08378 8.33317 2.08317H11.6665C11.8502 2.08378 12.0892 2.21071 12.1998 2.36652L12.9998 3.49984ZM15.9998 21.9165H3.99984C3.63184 21.9165 3.33317 21.5992 3.33317 21.2082V4.9165H16.6665V21.2082C16.6665 21.5992 16.3678 21.9165 15.9998 21.9165ZM13.6665 19.7915C13.8505 19.7915 13.9998 19.6328 13.9998 19.4373V7.39567C13.9998 7.20017 13.8505 7.04151 13.6665 7.04151H12.9998C12.8158 7.04151 12.6665 7.20017 12.6665 7.39567V19.4373C12.6665 19.6328 12.8158 19.7915 12.9998 19.7915H13.6665ZM6.99984 19.7915C7.18384 19.7915 7.33317 19.6328 7.33317 19.4373V7.39567C7.33317 7.20017 7.18384 7.04151 6.99984 7.04151H6.33317C6.14917 7.04151 5.99984 7.20017 5.99984 7.39567V19.4373C5.99984 19.6328 6.14917 19.7915 6.33317 19.7915H6.99984ZM10.3332 19.7915C10.5172 19.7915 10.6665 19.6328 10.6665 19.4373V7.39567C10.6665 7.20017 10.5172 7.04151 10.3332 7.04151H9.6665C9.4825 7.04151 9.33317 7.20017 9.33317 7.39567V19.4373C9.33317 19.6328 9.4825 19.7915 9.6665 19.7915H10.3332Z"
        fill="#115DFC" />
</svg>
    