<svg width="16" height="16" viewBox="0 0 16 16" fill="none" xmlns="http://www.w3.org/2000/svg">
    <path d="M12.2318 13.9079L11.7899 12.8656C11.7399 12.7488 11.7732 12.6154 11.8733 12.532C12.1318 12.3152 12.3653 12.0734 12.5821 11.8149C12.6655 11.7149 12.7989 11.6815 12.9156 11.7232L13.9579 12.1485C14.2414 12.2652 14.5583 12.1234 14.6667 11.8483L15.4589 9.89703C15.5756 9.61352 15.4339 9.29665 15.1587 9.18825L14.1164 8.76298C13.9996 8.71295 13.9246 8.59621 13.9329 8.46279C13.9579 8.12925 13.9579 7.7957 13.9329 7.45382C13.9246 7.32874 13.9913 7.20366 14.108 7.15363L15.1504 6.71168C15.4255 6.59494 15.5589 6.26974 15.4422 5.99456L14.625 4.06001C14.5083 3.78483 14.1831 3.65142 13.9079 3.76816L12.8656 4.2101C12.7488 4.26013 12.6154 4.22678 12.532 4.12672C12.3152 3.86822 12.0734 3.63474 11.8149 3.41793C11.7148 3.33455 11.6815 3.20113 11.7232 3.08439L12.1485 2.04206C12.2652 1.75855 12.1234 1.44168 11.8483 1.33328L9.89703 0.541114C9.61352 0.424374 9.29665 0.56613 9.18825 0.841304L8.76298 1.88363C8.71295 2.00037 8.59621 2.07542 8.46279 2.06708C8.12925 2.04206 7.7957 2.04206 7.45382 2.06708C7.32874 2.07542 7.20366 2.00871 7.15363 1.89197L6.71168 0.849643C6.59494 0.574469 6.26974 0.441051 5.99456 0.557791L4.06001 1.37497C3.78483 1.49172 3.65142 1.81692 3.76816 2.0921L4.2101 3.13442C4.26013 3.25116 4.22678 3.38458 4.12672 3.46797C3.86822 3.68477 3.63474 3.92659 3.41793 4.18509C3.33455 4.28515 3.20113 4.3185 3.08439 4.27681L2.04206 3.85154C1.75855 3.7348 1.44168 3.87656 1.33328 4.15173L0.541114 6.10297C0.424374 6.38648 0.56613 6.70335 0.841304 6.81175L1.88363 7.23702C2.00037 7.28705 2.07542 7.40379 2.06708 7.53721C2.04206 7.87075 2.04206 8.2043 2.06708 8.54618C2.07542 8.67126 2.00871 8.79634 1.89197 8.84637L0.849643 9.28831C0.574469 9.40505 0.441051 9.73026 0.557791 10.0054L1.37497 11.94C1.49172 12.2152 1.81692 12.3486 2.0921 12.2318L3.13442 11.7899C3.25116 11.7399 3.38458 11.7732 3.46797 11.8733C3.68477 12.1318 3.92659 12.3653 4.18509 12.5821C4.28515 12.6655 4.3185 12.7989 4.27681 12.9156L3.85154 13.9579C3.7348 14.2414 3.87656 14.5583 4.15173 14.6667L6.10297 15.4589C6.38648 15.5756 6.70335 15.4339 6.81175 15.1587L7.23702 14.1164C7.28705 13.9996 7.40379 13.9246 7.53721 13.9329C7.87075 13.9579 8.2043 13.9579 8.54618 13.9329C8.67126 13.9246 8.79634 13.9913 8.84637 14.108L9.28831 15.1504C9.40505 15.4255 9.73026 15.5589 10.0054 15.4422L11.94 14.625C12.2152 14.5083 12.3486 14.1831 12.2318 13.9079ZM9.16324 10.7559C7.64561 11.398 5.90284 10.6892 5.26077 9.17158C4.61869 7.65395 5.32748 5.91118 6.8451 5.26911C8.36273 4.62703 10.1055 5.33581 10.7476 6.85344C11.3896 8.37107 10.6809 10.1138 9.16324 10.7559Z"
        stroke="#A1A2A5"
        stroke-linecap="round"
        stroke-linejoin="round" />
</svg>