<svg width="28" height="36" viewBox="0 0 28 36" fill="none" xmlns="http://www.w3.org/2000/svg">
<path d="M17.1152 1V8.47059C17.1152 8.96592 17.3039 9.44096 17.6397 9.79121C17.9755 10.1415 18.4309 10.3382 18.9058 10.3382H26.0682" stroke="#666666" stroke-width="2" stroke-linecap="round" stroke-linejoin="round"/>
<path d="M13.5342 15.9412V27.1471M22.4872 34.6176H4.58119C3.6314 34.6176 2.72051 34.2241 2.04891 33.5236C1.3773 32.8231 1 31.873 1 30.8824V4.73529C1 3.74463 1.3773 2.79455 2.04891 2.09404C2.72051 1.39354 3.6314 1 4.58119 1H17.1154L26.0683 10.3382V30.8824C26.0683 31.873 25.691 32.8231 25.0194 33.5236C24.3478 34.2241 23.4369 34.6176 22.4872 34.6176Z" stroke="#666666" stroke-width="2" stroke-linecap="round" stroke-linejoin="round"/>
<path d="M9.05859 20.6105L13.5351 15.9414L18.0116 20.6105" stroke="#666666" stroke-width="2" stroke-linecap="round" stroke-linejoin="round"/>
</svg>