<svg width="14" height="9" viewBox="0 0 14 9" fill="none" xmlns="http://www.w3.org/2000/svg">
    <path
        fill-rule="evenodd"
        clip-rule="evenodd"
        d="M9.28375 8.87642L9.04027 8.62786C8.87893 8.4631 8.87893 8.19599 9.04027 8.03123L11.9301 5.09764L0.413195 5.09764C0.185009 5.09764 2.14568e-07 4.90875 2.04384e-07 4.67577L1.89017e-07 4.3242C1.78833e-07 4.09123 0.185009 3.90233 0.413195 3.90233L11.9301 3.90233L9.04027 0.968737C8.87893 0.804011 8.87893 0.536906 9.04027 0.372111L9.28375 0.123545C9.44509 -0.0411814 9.70673 -0.0411814 9.86807 0.123545L13.879 4.20167C14.0403 4.36643 14.0403 4.63354 13.879 4.79833L9.86807 8.87646C9.70673 9.04119 9.44509 9.04119 9.28375 8.87642Z"
        fill="white"
        stroke="#ff0000"
        stroke-width="0"
    />
</svg>
    